<svg version="1.1" viewBox="0.0 0.0 229.5538057742782 240.03674540682414" fill="none" stroke="none" stroke-linecap="square" stroke-miterlimit="10" xmlns:xlink="http://www.w3.org/1999/xlink" xmlns="http://www.w3.org/2000/svg"><clipPath id="p.0"><path d="m0 0l229.5538 0l0 240.03674l-229.5538 0l0 -240.03674z" clip-rule="nonzero"/></clipPath><g clip-path="url(#p.0)"><path fill="#ffffff" d="m0 0l229.5538 0l0 240.03674l-229.5538 0z" fill-rule="evenodd"/><path fill="#35c0cd" d="m212.28549 176.95457c-2.2492065 -2.451233 -8.841476 -16.98642 -13.49527 -14.707428c-4.6537933 2.279007 -5.5923767 22.34816 -14.42746 28.38144c-8.835098 6.033264 -19.520248 13.855637 -38.583084 7.8181763c-19.06285 -6.0374756 -63.93833 -35.238815 -75.79398 -44.042984c-11.855648 -8.804169 -2.9883804 -10.74147 4.66008 -8.782028c7.648468 1.9594269 43.583916 23.783966 41.230705 20.538635c-2.3532104 -3.245346 -48.25634 -31.891708 -55.34996 -40.01065c-7.0936165 -8.118942 1.8198357 -13.043678 12.788239 -8.702995c10.968407 4.340683 56.48152 38.544823 53.0222 34.74711c-3.45932 -3.797699 -64.81512 -45.73781 -73.77809 -57.533348c-8.962971 -11.79554 5.9533615 -20.178024 20.000244 -13.239906c14.04689 6.9381104 61.723022 54.88788 64.28108 54.86859c2.558075 -0.01928711 -42.77083 -43.677216 -48.93267 -54.984314c-6.1618423 -11.307098 1.4346695 -19.632423 11.9616165 -12.858276c10.526947 6.774147 42.038452 51.807724 51.200073 53.503174c9.161621 1.6954498 0.47920227 -35.180916 3.7696686 -43.330475c3.2904663 -8.149567 8.814636 -19.382042 15.97316 -5.566902c7.1585236 13.81514 25.082077 68.53765 26.978012 88.45774c1.8959198 19.920105 -13.002029 25.885681 -15.602432 31.06282" fill-rule="evenodd"/><path stroke="#000000" stroke-width="1.0" stroke-linejoin="round" stroke-linecap="butt" d="m212.28549 176.95457c-2.2492065 -2.451233 -8.841476 -16.98642 -13.49527 -14.707428c-4.6537933 2.279007 -5.5923767 22.34816 -14.42746 28.38144c-8.835098 6.033264 -19.520248 13.855637 -38.583084 7.8181763c-19.06285 -6.0374756 -63.93833 -35.238815 -75.79398 -44.042984c-11.855648 -8.804169 -2.9883804 -10.74147 4.66008 -8.782028c7.648468 1.9594269 43.583916 23.783966 41.230705 20.538635c-2.3532104 -3.245346 -48.25634 -31.891708 -55.34996 -40.01065c-7.0936165 -8.118942 1.8198357 -13.043678 12.788239 -8.702995c10.968407 4.340683 56.48152 38.544823 53.0222 34.74711c-3.45932 -3.797699 -64.81512 -45.73781 -73.77809 -57.533348c-8.962971 -11.79554 5.9533615 -20.178024 20.000244 -13.239906c14.04689 6.9381104 61.723022 54.88788 64.28108 54.86859c2.558075 -0.01928711 -42.77083 -43.677216 -48.93267 -54.984314c-6.1618423 -11.307098 1.4346695 -19.632423 11.9616165 -12.858276c10.526947 6.774147 42.038452 51.807724 51.200073 53.503174c9.161621 1.6954498 0.47920227 -35.180916 3.7696686 -43.330475c3.2904663 -8.149567 8.814636 -19.382042 15.97316 -5.566902c7.1585236 13.81514 25.082077 68.53765 26.978012 88.45774c1.8959198 19.920105 -13.002029 25.885681 -15.602432 31.06282" fill-rule="evenodd"/><path fill="#028e9b" d="m170.70998 232.65942c-0.38441467 -3.3946838 3.2857819 -19.113129 -2.306488 -20.368057c-5.592285 -1.2549438 -19.724579 14.211731 -31.247177 12.838455c-11.522598 -1.373291 -25.811493 -2.6066132 -37.888443 -21.078156c-12.076958 -18.471542 -30.450096 -74.15369 -34.573273 -89.751076c-4.1231804 -15.5974045 4.678108 -10.867683 9.834206 -3.833313c5.156105 7.0343704 20.915802 50.354256 21.102417 46.039528c0.18661499 -4.314728 -19.428558 -60.275284 -19.982727 -71.927925c-0.55417633 -11.652634 10.290443 -9.321503 16.657684 2.0121002c6.3672333 11.333595 21.924408 71.54058 21.545738 65.98948c-0.37866974 -5.5510864 -24.148682 -83.3214 -23.817757 -99.296036c0.330925 -15.974628 18.57425 -12.188572 25.803307 3.448265c7.229065 15.636833 15.393921 88.569115 17.571045 90.37275c2.1771088 1.8036346 -6.8815002 -65.966095 -4.5083313 -79.550964c2.3731537 -13.584866 14.386017 -14.958252 18.747284 -1.9582367c4.361267 13.000015 0.80685425 72.06267 7.4203186 79.95833c6.613449 7.895645 24.008896 -28.2919 32.26042 -32.58441c8.251526 -4.2925186 20.461426 -9.505669 17.248718 6.829338c-3.2127075 16.335 -24.764069 73.61982 -36.524963 91.18067c-11.7608795 17.560852 -28.366943 11.820389 -34.040344 14.1844635" fill-rule="evenodd"/><path stroke="#000000" stroke-width="1.0" stroke-linejoin="round" stroke-linecap="butt" d="m170.70998 232.65942c-0.38441467 -3.3946838 3.2857819 -19.113129 -2.306488 -20.368057c-5.592285 -1.2549438 -19.724579 14.211731 -31.247177 12.838455c-11.522598 -1.373291 -25.811493 -2.6066132 -37.888443 -21.078156c-12.076958 -18.471542 -30.450096 -74.15369 -34.573273 -89.751076c-4.1231804 -15.5974045 4.678108 -10.867683 9.834206 -3.833313c5.156105 7.0343704 20.915802 50.354256 21.102417 46.039528c0.18661499 -4.314728 -19.428558 -60.275284 -19.982727 -71.927925c-0.55417633 -11.652634 10.290443 -9.321503 16.657684 2.0121002c6.3672333 11.333595 21.924408 71.54058 21.545738 65.98948c-0.37866974 -5.5510864 -24.148682 -83.3214 -23.817757 -99.296036c0.330925 -15.974628 18.57425 -12.188572 25.803307 3.448265c7.229065 15.636833 15.393921 88.569115 17.571045 90.37275c2.1771088 1.8036346 -6.8815002 -65.966095 -4.5083313 -79.550964c2.3731537 -13.584866 14.386017 -14.958252 18.747284 -1.9582367c4.361267 13.000015 0.80685425 72.06267 7.4203186 79.95833c6.613449 7.895645 24.008896 -28.2919 32.26042 -32.58441c8.251526 -4.2925186 20.461426 -9.505669 17.248718 6.829338c-3.2127075 16.335 -24.764069 73.61982 -36.524963 91.18067c-11.7608795 17.560852 -28.366943 11.820389 -34.040344 14.1844635" fill-rule="evenodd"/><path fill="#ff0d00" d="m57.36646 59.952442l0 0c7.4423637 -6.098133 15.555096 -12.349796 23.619785 -18.20139l-2.299553 6.537964l0 0c-3.7189026 2.7889519 -7.443268 5.6222534 -11.091232 8.437626z" fill-rule="evenodd"/><path fill="#ff0d00" d="m37.042698 65.24195l0 0c15.753788 -13.041325 35.518543 -27.844482 51.202312 -38.34886l-14.741066 14.148268l0 0c-6.95916 5.1793747 -14.216587 10.665329 -21.205395 16.029354z" fill-rule="evenodd"/><path fill="#ff0d00" d="m20.52039 67.47555l0 0c11.891529 -9.844063 26.276283 -20.860924 39.58936 -30.320324c13.313072 -9.4594 24.308464 -16.476015 30.261238 -19.310947l-10.141014 8.222197c-11.796211 8.165678 -29.646793 21.354834 -46.38519 34.272354z" fill-rule="evenodd"/><path fill="#ff0d00" d="m5.152321 72.75961l0 0c7.4524584 -7.9065323 24.765903 -22.41734 44.178196 -37.02679c19.412296 -14.609453 37.281727 -26.57685 45.596897 -30.536844l-10.141014 8.222197c-8.593704 5.9488106 -20.56234 14.677259 -33.184795 24.200901c-12.622456 9.5236435 -24.826153 19.033215 -33.83653 26.36668z" fill-rule="evenodd"/><path fill="#ff0d00" d="m148.82613 47.641273l0 0c8.320511 4.8255386 17.019913 10.224419 25.328156 15.718746l-6.9265747 0.14286041l0 0c-3.9159546 -2.5018196 -7.87529 -4.993187 -11.791061 -7.419361z" fill-rule="evenodd"/><path fill="#ff0d00" d="m136.78984 30.495586l0 0c17.708817 10.156521 38.456253 23.429317 53.780136 34.404842l-18.397842 -8.821373c-7.275635 -4.6852875 -14.939987 -9.540836 -22.39746 -14.189335z" fill-rule="evenodd"/><path fill="#ff0d00" d="m129.06657 15.035971l0 0c13.380432 7.674076 28.72499 17.261518 42.239304 26.391562c13.5142975 9.130039 23.936646 16.950294 28.689804 21.526985l-11.280579 -6.620083c-11.785614 -8.171738 -30.366287 -20.228683 -48.30684 -31.346159z" fill-rule="evenodd"/><path fill="#ff0d00" d="m118.53931 3.2583187l0 0c10.025131 4.2133284 29.67308 15.322833 50.148224 28.355234c20.475143 13.032402 37.943466 25.547348 44.585114 31.942398l-11.280594 -6.620083c-8.587372 -5.9541893 -20.944504 -14.081966 -34.27095 -22.541367c-13.326462 -8.459404 -26.493866 -16.53417 -36.518173 -22.394352z" fill-rule="evenodd"/><path fill="#ff0d00" d="m56.029636 136.86462l0 0c-5.3814964 -7.9922028 -10.853329 -16.66954 -15.929306 -25.26101l6.3036385 2.9083328l0 0c2.4314842 3.9705887 4.906849 7.950836 7.3714867 11.852913z" fill-rule="evenodd"/><path fill="#ff0d00" d="m59.343807 157.53383l0 0c-11.487679 -16.888 -24.345135 -37.911842 -33.323082 -54.488167l12.691725 15.991043l0 0c4.495064 7.400017 9.265816 15.12397 13.941032 22.570839z" fill-rule="evenodd"/><path fill="#ff0d00" d="m60.015335 174.1929l0 0c-8.677658 -12.756989 -18.284733 -28.095474 -26.44424 -42.220383c-8.159506 -14.124924 -14.109184 -25.71672 -16.37696 -31.907356l7.2442493 10.88279l0 0c7.021492 12.503296 18.459585 31.481644 29.733335 49.334274z" fill-rule="evenodd"/><path fill="#ff0d00" d="m63.841217 190.01042l0 0c-7.173828 -8.174622 -19.985912 -26.764496 -32.698578 -47.444473c-12.712664 -20.67997 -22.944288 -39.575806 -26.11281 -48.22532l7.24425 10.88279l0 0c5.1158705 9.109917 12.673802 21.828094 20.959553 35.269882c8.285751 13.441788 16.59711 26.468002 23.048946 36.124115z" fill-rule="evenodd"/></g></svg>